<svg xmlns="http://www.w3.org/2000/svg" version="1.1" xmlns:xlink="http://www.w3.org/1999/xlink" xmlns:svgjs="http://svgjs.dev/svgjs" width="1000" height="1125" viewBox="0 0 1000 1125"><g transform="matrix(1,0,0,1,0.00007343750002064553,0)"><svg viewBox="0 0 320 360" data-background-color="#ffffff" preserveAspectRatio="xMidYMid meet" height="1125" width="1000" xmlns="http://www.w3.org/2000/svg" xmlns:xlink="http://www.w3.org/1999/xlink"><g id="tight-bounds" transform="matrix(1,0,0,1,0.000023499999997511622,0)"><svg viewBox="0 0 320 360" height="360" width="320"><g><svg></svg></g><g><svg viewBox="0 0 320 360" height="360" width="320"><g><path transform="translate(-74.99272,-51.79039) scale(4.65793,4.65793)" d="M20.6 59.9l0.8 1-0.4-1.3c-0.1-0.6-0.8 0.1-0.4 0.3M21.5 59.3c0.3 0.5 0.6 1 0.6 1.5 0 0.7 0.6 1 1.1 1.2-0.7-0.8-1.1-3-1.7-2.7M59.9 16.9c1.7 0 3.3-0.2 5.1 0.2 4.4 1.1 8.1 3.3 10.6 6.4l7 11.2c0.3 2.8 0.9 5.9 0.8 9.3 0.7 0 0.6-1 1.4-1.2-0.8 2-1.2 4.5-1.4 7.4-0.5-1.6 0-4 0.1-5.3-0.7 1.1-1.1 0.3-1.1-0.2 0.1-0.8-0.3-0.7-0.6-1-1.1-1-1.8-2.1-2.6-3.8 0.5-1.3 0.6-3.2-1-4.2-0.5-0.3-1.1-0.8-1.4-1.6-0.4-1.1-1.1-2.4-0.9-4.1 0.1-0.5-1.5 1.1-2.4 0.4-3.9-2.7-7.8-5.8-12.5-8.4-2.5 0-4.3-0.9-5.2-2-0.8-1-0.2-2.3 1-2.4 0.7 0 1.5-0.2 2.1 0.2 0.1-0.4 0.5-0.9 1-0.9M50 14.6l0.2 0.1c1 0.2 1.5 1.6 2.6 1.1 0 0.7 0.1 1.4-0.1 1.9-0.3 0.8-1.2 0.8-1.9 0.8-6.7-0.4-10.6 2.4-14.7 4.8-1.1 0.7-2.3 1.2-3.2 2.1-4.3 4-9 7.7-10.1 15.1l-0.9 8.2c-0.1 0.9-1.1 1.8-0.9 2.9l0.7 4.9c-0.7-0.7-1.1 0.2-0.9 0.6 0.1 0.3 0.5 1.3 1.1 0.4 0.8 1.5 1.6 4.4 2.7 5.7 3.4 4 7.8 7.6 11.4 11.2 0.9-0.2 1.6-0.2 1.8-0.8 0.3 0.6-0.3 1.2-0.8 1.3 1.6 1 3.4 1.9 5.8 2.1 3.1 0.2 6 0.7 8.7 1.4 1.4-0.4 2.8-0.6 4.3-0.7 0.5 0 0.8-0.8 1.4-1l0.1-1c0.6 0.9 0.5-0.3 0.1-0.9 0.7 0.6 0.9 1.1 1.2 1.5 0-0.3 0.8-1.4 0.8-0.1l0.2-1.3c0.3-0.2 0.4 1.1 0.7 0.2 0.3-0.9 0.9-0.2 1.5-0.5-0.2 0.4-0.1 1.2 0.6 0.7l0.8-0.7c0.5 1.2 1.3 0.7 1.7 0.5 4.4-2.8 8.8-6.1 13-9.4l-0.1 1.3 0.5-1.6c0.5 0.5 0.9 0.1 1.1-0.2 0.6-1 1.4-2 2.7-2.9-1.6 4.3-3.5 7.7-5.9 10.5l-1 1.2c0 0.7-0.2 1.6-1 1.7-0.4 0.1-1.2-0.2-1.8 0.4-0.3 0.4 0.7 1.2-0.1 0.6-0.7-0.5-1.4 0-2.2 0.2-0.6 0.2 0.4 0.8 0.6 1.2 0.2 0.4 0.4 0.8 0.3 1.3l-1.1-1.2c-1.3 0.7-2.1 2-3.2 3-0.5 0.4-0.3 1.1-0.3 1.7-0.7 0-1.5-0.2-1.9 0.2-0.3 0.4-0.2 1-0.2 1.6-1-0.1-1.1-1.6-2-1.3-0.9 0.2-1.9 0.3-2.7 0.8 0.6 1.2-1 0.5-0.8 0.7-1.5-0.9-2.8-1.6-4.4-1-3.4-1.1-7.6-0.6-10.7-0.2 0-0.5 0.1-1-0.1-1.1-0.2 0.5-0.8 0.3-0.7 0.3-1.9-1.3-3.8-2.1-5.8-3.2-1.8 0.2-3.5-0.7-4-1.2-1.4-1.3-3-0.6-4.3-0.9-2.8-0.7-3.8-3.6-4.1-5.6-0.2-1-1-1.4-1.3-1.3-1.3-4.2-3.3-8-4.9-11.9-0.4-1-0.3-2-0.3-3.1 0.5 0.2 1 0.1 0.9-0.6-0.5-3.3-1.7-5.8-3-8.2 0.7-3.4 0.8-7.4 2.4-10.4 1.4-2.7 4-4.1 5.8-6.4 0.6-0.8 0.6-1.9 1.2-2.6 2-2 4-4.1 6.2-5.9 1-0.8 2.2 0 3.7-0.3 0.5-1.8 2.5-3.4 4.4-2.9 0.8 0.2 2.4-1.9 2.9-2.1 0.8-0.3 0.4 0.8 0.4 1.5 1.9-1.5 4.5-2.3 6.9-3.2" fill="#8d021f" fill-rule="nonzero" stroke="none" stroke-width="1" stroke-linecap="butt" stroke-linejoin="miter" stroke-miterlimit="10" stroke-dasharray="" stroke-dashoffset="0" font-family="none" font-weight="none" font-size="none" text-anchor="none" style="mix-blend-mode: normal" data-fill-palette-color="tertiary"></path></g><g transform="matrix(1,0,0,1,64,124.5063591889431)"><svg viewBox="0 0 192 110.98728162211383" height="110.98728162211383" width="192"><g><svg viewBox="0 0 192 110.98728162211383" height="110.98728162211383" width="192"><g><svg viewBox="0 0 192 110.98728162211383" height="110.98728162211383" width="192"><g transform="matrix(1,0,0,1,0,65.95702666276424)"><svg viewBox="0 0 192 45.03025495934959" height="45.03025495934959" width="192"><g><svg viewBox="0 0 192 45.03025495934959" height="45.03025495934959" width="192"><g><svg viewBox="0 0 192 25.528455284552845" height="25.528455284552845" width="192"><g transform="matrix(1,0,0,1,0,0)"><svg width="192" viewBox="2.59 -37.84 288.26000000000005 38.330000000000005" height="25.528455284552845" data-palette-color="#8d021f"><path d="M2.59 0L2.59-2.08 21.26-33.86 3.86-33.86 3.86-37.35 26.37-37.35 26.37-35.21 7.76-3.44 26.22-3.44 26.22 0 2.59 0ZM56.15-5.03L57.35-1.54Q52.29 0.49 46.19 0.49L46.19 0.49Q42.65 0.49 40.18-0.24L40.18-0.24Q36.25-1.37 34.96-4.88L34.96-4.88Q33.76-8.18 33.76-14.65L33.76-14.65 33.76-15.89Q33.76-23.63 36.98-26.76L36.98-26.76Q39.89-29.54 46.68-29.54L46.68-29.54Q53.29-29.54 55.71-26.27L55.71-26.27Q56.88-24.68 57.26-22.42 57.64-20.17 57.64-18.12L57.64-18.12Q57.64-14.92 57.49-13.16L57.49-13.16Q54.05-13.01 51.32-13.01L51.32-13.01Q51.32-13.01 47.39-13.01L47.39-13.01Q41.23-13.01 37.91-13.55L37.91-13.55Q37.91-7.93 39.33-5.71L39.33-5.71Q41.06-3 46.24-3 51.41-3 56.15-5.03L56.15-5.03ZM37.91-16.41L53.51-16.41 53.51-18.75Q53.51-22.58 52.02-24.22L52.02-24.22Q50.36-26.05 46.29-26.05L46.29-26.05Q41.4-26.05 39.62-23.93L39.62-23.93Q37.91-21.9 37.91-16.41L37.91-16.41ZM78.32-25.51L78.32-25.51Q75.19-25.51 71.94-22.39L71.94-22.39 71.94 0 67.89 0 67.89-29.05 71.45-29.05 71.85-25.2Q72.99-26.98 74.32-27.98 75.65-28.98 76.51-29.2L76.51-29.2Q77.73-29.54 78.83-29.54 79.93-29.54 81.59-29.1L81.59-29.1 81.22-25.22Q79.98-25.51 78.32-25.51ZM87.88-14.45L87.88-14.45Q87.88-20 88.44-22.19 89.01-24.39 89.82-25.67 90.64-26.95 92.03-27.81L92.03-27.81Q94.82-29.54 100.26-29.54L100.26-29.54Q108.12-29.54 110.37-25.66L110.37-25.66Q111.71-23.32 111.91-19.04L111.91-19.04Q111.98-17.02 111.98-14.58 111.98-12.13 111.82-10.02 111.66-7.91 111.2-6.23 110.73-4.54 109.9-3.28 109.07-2.03 107.71-1.17L107.71-1.17Q105.02 0.49 99.87 0.49L99.87 0.49Q92.16 0.49 89.74-3.32L89.74-3.32Q88.25-5.69 88.01-9.96L88.01-9.96Q87.88-12.01 87.88-14.45ZM94.52-4.27Q95.4-3.61 96.73-3.28 98.06-2.95 100.37-2.95 102.68-2.95 104.25-3.61 105.83-4.27 106.62-5.73 107.41-7.18 107.62-9.5 107.83-11.82 107.83-14.89 107.83-17.97 107.65-20.02 107.46-22.07 106.73-23.41L106.73-23.41Q105.27-26.05 100.21-26.05L100.21-26.05Q94.87-26.05 93.25-23.41L93.25-23.41Q92.45-22.07 92.23-20 92.01-17.92 92.01-15.48 92.01-13.04 92.07-11.34 92.13-9.64 92.39-8.29 92.64-6.93 93.14-5.93 93.64-4.93 94.52-4.27ZM118.64-2.47L120.25-5.88Q125.8-2.95 131.09-2.95L131.09-2.95Q137.25-2.95 138.3-6.88L138.3-6.88Q138.64-8.18 138.64-9.86L138.64-9.86 138.64-10.82Q138.64-12.52 138.39-13.57 138.15-14.62 137.37-15.28L137.37-15.28Q136.1-16.38 131.36-17.11L131.36-17.11Q127.14-17.77 125.53-18.36 123.92-18.95 122.88-19.64 121.84-20.34 121.11-21.39L121.11-21.39Q119.59-23.58 119.59-27.47L119.59-27.47 119.59-27.71Q119.59-35.77 126.28-37.35L126.28-37.35Q128.41-37.84 131.09-37.84L131.09-37.84 131.41-37.84Q137.69-37.84 141.66-36.04L141.66-36.04 140.4-32.3Q135.59-34.38 131.53-34.38L131.53-34.38 131.31-34.38Q126.85-34.38 125.16-32.69L125.16-32.69Q123.74-31.27 123.74-27.78L123.74-27.78 123.74-27.69Q123.74-23.71 125.94-22.46L125.94-22.46Q127.43-21.66 131.28-21.04 135.12-20.43 137-20.01 138.88-19.58 140.2-18.6L140.2-18.6Q142.93-16.55 142.93-10.82L142.93-10.82 142.93-10.5Q142.93-1.73 135.88-0.05L135.88-0.05Q133.71 0.49 131.78 0.49 129.85 0.49 128.27 0.35 126.7 0.22 125.06-0.12L125.06-0.12Q121.23-0.9 118.64-2.47L118.64-2.47ZM172.72-5.03L173.91-1.54Q168.86 0.49 162.76 0.49L162.76 0.49Q159.22 0.49 156.75-0.24L156.75-0.24Q152.82-1.37 151.53-4.88L151.53-4.88Q150.33-8.18 150.33-14.65L150.33-14.65 150.33-15.89Q150.33-23.63 153.55-26.76L153.55-26.76Q156.46-29.54 163.24-29.54L163.24-29.54Q169.86-29.54 172.28-26.27L172.28-26.27Q173.45-24.68 173.83-22.42 174.21-20.17 174.21-18.12L174.21-18.12Q174.21-14.92 174.06-13.16L174.06-13.16Q170.62-13.01 167.88-13.01L167.88-13.01Q167.88-13.01 163.95-13.01L163.95-13.01Q157.8-13.01 154.48-13.55L154.48-13.55Q154.48-7.93 155.9-5.71L155.9-5.71Q157.63-3 162.8-3 167.98-3 172.72-5.03L172.72-5.03ZM154.48-16.41L170.08-16.41 170.08-18.75Q170.08-22.58 168.59-24.22L168.59-24.22Q166.93-26.05 162.85-26.05L162.85-26.05Q157.97-26.05 156.19-23.93L156.19-23.93Q154.48-21.9 154.48-16.41L154.48-16.41ZM203.43-4.59L204.65-1.29Q201.25 0.49 195.35 0.49L195.35 0.49Q191.86 0.49 190.22-0.05L190.22-0.05Q186.04-1.46 184.75-4.86L184.75-4.86Q183.85-7.23 183.7-9.96 183.55-12.7 183.55-14.58 183.55-16.46 183.65-18.25 183.75-20.04 184.13-21.7 184.51-23.36 185.29-24.79 186.07-26.22 187.41-27.29L187.41-27.29Q190.32-29.54 195.76-29.54L195.76-29.54Q199.77-29.54 203.13-28.37L203.13-28.37Q204.04-28.08 204.5-27.81L204.5-27.81 203.28-24.19Q198.59-26 195.6-26 192.61-26 191.21-25.32 189.8-24.63 189.02-23.24L189.02-23.24Q187.7-20.85 187.7-14.45L187.7-14.45Q187.7-11.89 187.88-9.78 188.05-7.67 188.73-6.15L188.73-6.15Q190.17-3.03 194.67-3.03 199.18-3.03 203.43-4.59L203.43-4.59ZM235.63-29.05L235.63-12.79Q235.63-4.74 236.09-0.2L236.09-0.2 232.45 0.1 231.87-3.34Q229.01-0.98 225.2 0.07L225.2 0.07Q223.69 0.49 221.6 0.49 219.51 0.49 217.87-0.01 216.22-0.51 215.24-1.61L215.24-1.61Q213.46-3.59 213.46-8.81L213.46-8.81 213.46-29.05 217.56-29.05 217.56-9.47Q217.56-5.96 218.24-4.94 218.93-3.93 219.87-3.58 220.81-3.22 222.1-3.22 223.4-3.22 224.6-3.43 225.81-3.64 227.03-4.03L227.03-4.03Q229.6-4.86 231.67-6.3L231.67-6.3 231.67-6.32Q231.57-8.18 231.57-13.55L231.57-13.55 231.57-29.05 235.63-29.05ZM257.38-25.51L257.38-25.51Q254.25-25.51 251.01-22.39L251.01-22.39 251.01 0 246.95 0 246.95-29.05 250.52-29.05 250.91-25.2Q252.06-26.98 253.39-27.98 254.72-28.98 255.57-29.2L255.57-29.2Q256.79-29.54 257.89-29.54 258.99-29.54 260.65-29.1L260.65-29.1 260.28-25.22Q259.04-25.51 257.38-25.51ZM289.36-5.03L290.55-1.54Q285.5 0.49 279.4 0.49L279.4 0.49Q275.86 0.49 273.39-0.24L273.39-0.24Q269.46-1.37 268.17-4.88L268.17-4.88Q266.97-8.18 266.97-14.65L266.97-14.65 266.97-15.89Q266.97-23.63 270.19-26.76L270.19-26.76Q273.1-29.54 279.88-29.54L279.88-29.54Q286.5-29.54 288.92-26.27L288.92-26.27Q290.09-24.68 290.47-22.42 290.85-20.17 290.85-18.12L290.85-18.12Q290.85-14.92 290.7-13.16L290.7-13.16Q287.26-13.01 284.52-13.01L284.52-13.01Q284.52-13.01 280.59-13.01L280.59-13.01Q274.44-13.01 271.12-13.55L271.12-13.55Q271.12-7.93 272.54-5.71L272.54-5.71Q274.27-3 279.45-3 284.62-3 289.36-5.03L289.36-5.03ZM271.12-16.41L286.72-16.41 286.72-18.75Q286.72-22.58 285.23-24.22L285.23-24.22Q283.57-26.05 279.49-26.05L279.49-26.05Q274.61-26.05 272.83-23.93L272.83-23.93Q271.12-21.9 271.12-16.41L271.12-16.41Z" opacity="1" transform="matrix(1,0,0,1,0,0)" fill="#8d021f" class="undefined-text-0" data-fill-palette-color="primary" id="text-0"></path></svg></g></svg></g><g transform="matrix(1,0,0,1,0,29.253669593495935)"><svg viewBox="0 0 192 15.776585365853657" height="15.776585365853657" width="192"><g transform="matrix(1,0,0,1,0,0)"><svg width="192" viewBox="1.65 -42.3 525.13 43.15" height="15.776585365853657" data-palette-color="#8d021f"><path d="M30.55-37.9L35.6-37.9 21.35 0.45 15.95 0.45 1.65-37.9 6.75-37.9 18.65-5.6 30.55-37.9ZM72.42-27.65L77.12-27.65 77.12 0 72.42 0 72.42-2.95Q68.32 0.6 63.97 0.6L63.97 0.6Q58.87 0.6 56.4-2.1 53.92-4.8 53.92-10.95L53.92-10.95 53.92-27.65 58.62-27.65 58.62-10.95Q58.62-7.05 59.95-5.4 61.27-3.75 64.62-3.75L64.62-3.75Q68.52-3.75 72.42-7.15L72.42-7.15 72.42-27.65ZM105.55 0.65Q101.8 0.65 100.15-0.85 98.5-2.35 98.5-5.9L98.5-5.9 98.5-42.3 103.2-42.3 103.2-7.15Q103.2-5.15 103.82-4.42 104.45-3.7 106.2-3.7L106.2-3.7Q107.6-3.7 108.7-4L108.7-4 108.7 0.3Q106.7 0.65 105.55 0.65L105.55 0.65ZM139.97-28.25Q145.07-28.25 147.55-25.55 150.02-22.85 150.02-16.65L150.02-16.65 150.02 0 145.32 0 145.32-16.65Q145.32-20.55 144-22.2 142.67-23.85 139.32-23.85L139.32-23.85Q135.42-23.85 131.52-20.45L131.52-20.45 131.52 0 126.82 0 126.82-27.65 131.52-27.65 131.52-24.7Q135.62-28.25 139.97-28.25L139.97-28.25ZM174.35-13.45Q174.45-8.85 176.65-6.1 178.85-3.35 183.65-3.35L183.65-3.35Q187.3-3.35 191.65-5.4L191.65-5.4 193.1-1.5Q188.55 0.85 183.25 0.85L183.25 0.85Q178.85 0.85 175.75-1 172.65-2.85 171.05-6.15 169.45-9.45 169.45-13.85L169.45-13.85Q169.45-18.5 171.12-21.78 172.8-25.05 175.65-26.75 178.5-28.45 182.05-28.45L182.05-28.45Q187.5-28.45 190.6-25.05 193.7-21.65 193.7-15.3L193.7-15.3 193.7-13.45 174.35-13.45ZM182.05-24.25Q175.85-24.25 174.65-17.4L174.65-17.4 188.75-17.4Q188.5-20.9 186.85-22.58 185.2-24.25 182.05-24.25L182.05-24.25ZM225.82-28.25L226.97-28.25 226.97-23.85 225.82-23.85Q221.52-23.85 217.47-20.4L217.47-20.4 217.47 0 212.77 0 212.77-27.65 217.47-27.65 217.47-24.55Q221.57-28.25 225.82-28.25L225.82-28.25ZM253.84-27.65Q258.24-27.65 260.54-26.18 262.84-24.7 263.59-22.23 264.34-19.75 264.34-16L264.34-16 264.34 0 259.64 0 259.64-2.75Q257.74-0.95 255.84-0.15 253.94 0.65 251.74 0.65L251.74 0.65Q249.14 0.65 247.04-0.48 244.94-1.6 243.72-3.73 242.49-5.85 242.49-8.75L242.49-8.75Q242.49-13.25 245.29-15.73 248.09-18.2 252.84-18.2L252.84-18.2Q256.59-18.2 259.59-16.55L259.59-16.55Q259.54-19 259.09-20.45 258.64-21.9 257.24-22.68 255.84-23.45 253.09-23.45L253.09-23.45 249.39-23.45 249.39-27.65 253.84-27.65ZM252.39-3.4Q254.09-3.4 255.97-4.2 257.84-5 259.64-6.6L259.64-6.6 259.64-12.9Q256.84-14.3 253.54-14.3L253.54-14.3Q250.89-14.3 249.09-13.03 247.29-11.75 247.29-8.75L247.29-8.75Q247.29-5.95 248.82-4.67 250.34-3.4 252.39-3.4L252.39-3.4ZM297.17-28.45Q302.77-28.45 306.09-24.7 309.42-20.95 309.42-13.8L309.42-13.8Q309.42-6.65 306.09-2.9 302.77 0.85 297.17 0.85L297.17 0.85Q293.12 0.85 289.17-2.5L289.17-2.5 289.17 0 284.47 0 284.47-42.3 289.17-42.3 289.17-25.05Q293.17-28.45 297.17-28.45L297.17-28.45ZM296.52-3.5Q300.47-3.5 302.52-6.13 304.57-8.75 304.57-13.8L304.57-13.8Q304.57-18.85 302.52-21.45 300.47-24.05 296.52-24.05L296.52-24.05Q292.77-24.05 289.17-20.95L289.17-20.95 289.17-6.6Q292.87-3.5 296.52-3.5L296.52-3.5ZM329.14-32.85L329.14-40.4 333.84-40.4 333.84-32.85 329.14-32.85ZM329.14 0L329.14-27.65 333.84-27.65 333.84 0 329.14 0ZM362.26 0.65Q358.51 0.65 356.86-0.85 355.21-2.35 355.21-5.9L355.21-5.9 355.21-42.3 359.91-42.3 359.91-7.15Q359.91-5.15 360.54-4.42 361.16-3.7 362.91-3.7L362.91-3.7Q364.31-3.7 365.41-4L365.41-4 365.41 0.3Q363.41 0.65 362.26 0.65L362.26 0.65ZM383.54-32.85L383.54-40.4 388.24-40.4 388.24-32.85 383.54-32.85ZM383.54 0L383.54-27.65 388.24-27.65 388.24 0 383.54 0ZM421.66-22.95L415.26-22.95 415.26-7.15Q415.26-5.15 415.89-4.42 416.51-3.7 418.21-3.7L418.21-3.7Q419.71-3.7 421.41-4.1L421.41-4.1 421.41 0.15Q419.16 0.65 417.41 0.65L417.41 0.65Q413.61 0.65 412.09-0.9 410.56-2.45 410.56-6.1L410.56-6.1 410.56-22.95 406.96-22.95 406.96-27.3 410.56-27.3 410.56-36.8 415.26-36.8 415.26-27.3 421.66-27.3 421.66-22.95ZM440.64-32.85L440.64-40.4 445.34-40.4 445.34-32.85 440.64-32.85ZM440.64 0L440.64-27.65 445.34-27.65 445.34 0 440.64 0ZM469.91-13.45Q470.01-8.85 472.21-6.1 474.41-3.35 479.21-3.35L479.21-3.35Q482.86-3.35 487.21-5.4L487.21-5.4 488.66-1.5Q484.11 0.85 478.81 0.85L478.81 0.85Q474.41 0.85 471.31-1 468.21-2.85 466.61-6.15 465.01-9.45 465.01-13.85L465.01-13.85Q465.01-18.5 466.68-21.78 468.36-25.05 471.21-26.75 474.06-28.45 477.61-28.45L477.61-28.45Q483.06-28.45 486.16-25.05 489.26-21.65 489.26-15.3L489.26-15.3 489.26-13.45 469.91-13.45ZM477.61-24.25Q471.41-24.25 470.21-17.4L470.21-17.4 484.31-17.4Q484.06-20.9 482.41-22.58 480.76-24.25 477.61-24.25L477.61-24.25ZM516.73 0.85Q513.68 0.85 511.33 0.35 508.98-0.15 506.43-1.35L506.43-1.35 506.43-6Q511.18-3.35 516.73-3.35L516.73-3.35Q519.53-3.35 520.76-4.48 521.98-5.6 521.98-7.45L521.98-7.45Q521.98-9.25 521.01-10.1 520.03-10.95 517.83-11.55L517.83-11.55 514.58-12.35Q511.08-13.2 509.08-15.05 507.08-16.9 507.08-20.5L507.08-20.5Q507.08-24.25 509.53-26.35 511.98-28.45 516.73-28.45L516.73-28.45Q519.18-28.45 521.28-27.98 523.38-27.5 525.48-26.65L525.48-26.65 525.48-22.25Q523.43-23.2 521.43-23.73 519.43-24.25 516.88-24.25L516.88-24.25Q514.23-24.25 513.06-23.23 511.88-22.2 511.88-20.65L511.88-20.65Q511.88-18.95 512.91-18.07 513.93-17.2 515.88-16.7L515.88-16.7 519.18-15.95Q521.68-15.35 523.31-14.45 524.93-13.55 525.86-11.93 526.78-10.3 526.78-7.6L526.78-7.6Q526.78-3.55 524.06-1.35 521.33 0.85 516.73 0.85L516.73 0.85Z" opacity="1" transform="matrix(1,0,0,1,0,0)" fill="#8d021f" class="undefined-text-1" data-fill-palette-color="secondary" id="text-1"></path></svg></g></svg></g></svg></g></svg></g><g transform="matrix(1,0,0,1,73.37546758367216,0)"><svg viewBox="0 0 45.24906483265569 62.23181235382114" height="62.23181235382114" width="45.24906483265569"><g><svg xmlns="http://www.w3.org/2000/svg" viewBox="17.999000000000002 4.999999999999989 65.43799999999999 89.998" x="0" y="0" height="62.23181235382114" width="45.24906483265569" class="icon-icon-0" data-fill-palette-color="accent" id="icon-0"><path d="M50.719 5c-14.09 0-23.313 10.351-23.313 22.313l0 13.688-3.438 0c-4.534 0-5.969 1.402-5.969 5.938l0 42.09c0 4.536 1.433 5.969 5.969 5.969l53.5 0c4.536 0 5.969-1.433 5.969-5.969l0-42.09c0-4.534-1.433-5.938-5.969-5.938l-3.438 0 0-13.688c0-11.962-9.226-22.313-23.313-22.313m13.625 22.813l0 13.188-27.22 0 0-13.188c0-5.823 3.779-13.09 13.594-13.09 9.816 0 13.626 7.272 13.626 13.09z m-24.439 21.656l10.813 10.813 10.875-10.813 7.656 7.656-10.875 10.813 10.875 10.875-7.656 7.656-10.875-10.875-10.813 10.875-7.656-7.656 10.813-10.875-10.813-10.813 7.656-7.656" fill="#8d021f" data-fill-palette-color="accent"></path></svg></g></svg></g><g></g></svg></g></svg></g></svg></g></svg></g><defs></defs></svg><rect width="320" height="360" fill="none" stroke="none" visibility="hidden"></rect></g></svg></g></svg>